<?xml version="1.0" encoding="UTF-8" standalone="no"?>
<!-- Created with Inkscape (http://www.inkscape.org/) -->

<svg
   width="124.53056mm"
   height="113.94722mm"
   viewBox="0 0 124.53056 113.94722"
   version="1.1"
   id="svg5"
   inkscape:version="1.4 (e7c3feb1, 2024-10-09)"
   sodipodi:docname="icon.svg"
   inkscape:export-filename="icon.png"
   inkscape:export-xdpi="96"
   inkscape:export-ydpi="96"
   xmlns:inkscape="http://www.inkscape.org/namespaces/inkscape"
   xmlns:sodipodi="http://sodipodi.sourceforge.net/DTD/sodipodi-0.dtd"
   xmlns="http://www.w3.org/2000/svg"
   xmlns:svg="http://www.w3.org/2000/svg">
  <sodipodi:namedview
     id="namedview7"
     pagecolor="#ffffff"
     bordercolor="#666666"
     borderopacity="1.0"
     inkscape:pageshadow="2"
     inkscape:pageopacity="0.0"
     inkscape:pagecheckerboard="0"
     inkscape:document-units="mm"
     showgrid="false"
     inkscape:zoom="1.5888446"
     inkscape:cx="254.27282"
     inkscape:cy="175.2846"
     inkscape:window-width="1728"
     inkscape:window-height="1080"
     inkscape:window-x="0"
     inkscape:window-y="25"
     inkscape:window-maximized="0"
     inkscape:current-layer="layer1"
     inkscape:showpageshadow="2"
     inkscape:deskcolor="#d1d1d1" />
  <defs
     id="defs2" />
  <g
     inkscape:label="Layer 1"
     inkscape:groupmode="layer"
     id="layer1"
     transform="translate(-33.671093,-73.065544)">
    <path
       style="fill:#000000;stroke-width:0.352778"
       d="M 56.291076,175.44173 41.587393,163.95399 50.454804,153.2989 c 4.877075,-5.86029 9.089437,-10.91484 9.360803,-11.23231 0.446751,-0.52267 -0.733953,-1.101 -12.489549,-6.1177 -7.140618,-3.04726 -13.037731,-5.59396 -13.104694,-5.65934 -0.237504,-0.23188 15.28934,-34.036012 15.63335,-34.036012 0.192372,0 1.188066,0.347456 2.212655,0.772124 1.13284,0.469536 1.976849,0.642349 2.153684,0.440972 0.159939,-0.182133 0.905479,-1.720214 1.656757,-3.417957 0.751279,-1.697743 1.543531,-3.086805 1.760562,-3.086805 0.21703,0 3.858761,1.508125 8.092736,3.351388 4.233974,1.843264 7.714381,3.351514 7.734239,3.351667 0.01986,1.53e-4 -0.01528,-4.206722 -0.07806,-9.348611 l -0.114166,-9.348889 h 3.906527 3.906524 v -2.645833 -2.645833 h 18.926998 18.92699 l -0.2552,13.982221 c -0.21043,11.529313 -0.17338,13.948418 0.2112,13.789528 0.25652,-0.10598 5.70515,-2.508235 12.10806,-5.33834 6.40292,-2.830106 11.81427,-5.146018 12.02524,-5.146472 0.28219,-6e-4 13.31821,29.572042 14.78746,33.545862 0.16362,0.44254 -0.6637,0.92869 -3.89318,2.28769 -3.93037,1.65394 -4.09326,1.76427 -3.91564,2.65236 0.1813,0.90647 0.009,1.0019 -7.90997,4.3837 -4.45241,1.90139 -8.09529,3.55771 -8.09529,3.68072 0,0.12301 3.73062,4.81818 8.29027,10.4337 4.55966,5.61552 8.29028,10.30527 8.29028,10.42166 0,0.4066 -29.10883,23.02175 -29.63245,23.02196 -0.29056,1.2e-4 -2.10578,1.24851 -4.03381,2.77419 -2.81655,2.22877 -3.5902,2.68523 -3.93639,2.32246 -0.23698,-0.24834 -4.59351,-5.61089 -9.68118,-11.9168 -5.08767,-6.3059 -9.349191,-11.40791 -9.470045,-11.33779 -0.120851,0.0701 -3.371741,4.03886 -7.224195,8.81944 -3.852456,4.78058 -7.197428,8.89596 -7.433271,9.14527 -0.347267,0.36712 -0.602343,0.31681 -1.341455,-0.26458 -0.501961,-0.39484 -0.992431,-0.71789 -1.089935,-0.71789 -0.09751,0 -1.246304,1.30969 -2.552884,2.91042 -1.306579,1.60072 -2.559519,3.11156 -2.784309,3.35741 -0.321836,0.35198 -3.533997,-1.99474 -15.11239,-11.04075 z m 32.885533,-11.63125 c 5.881297,-7.27604 10.732545,-13.22916 10.780547,-13.22916 0.048,0 4.901474,5.95818 10.785504,13.24042 5.88403,7.28223 10.87972,13.17077 11.10154,13.08565 0.22182,-0.0851 5.82007,-4.39642 12.44055,-9.58067 l 12.03724,-9.4259 -3.63104,-4.45351 c -12.66506,-15.53376 -15.02972,-18.53676 -14.78368,-18.77457 0.1511,-0.14605 5.91036,-2.68082 12.79834,-5.63283 6.88799,-2.952 12.65819,-5.48784 12.82266,-5.63518 0.16448,-0.14735 -2.43826,-6.62664 -5.78388,-14.39843 l -6.08294,-14.130517 -1.09528,0.465736 c -0.6024,0.256155 -6.37394,2.788649 -12.82564,5.627771 -6.45171,2.83911 -11.91163,5.16203 -12.13317,5.16203 -0.29955,0 -0.33656,-3.7524 -0.14437,-14.640282 l 0.25843,-14.640277 H 99.950997 84.180567 l 0.261959,14.502029 c 0.254557,14.09215 0.243233,14.49597 -0.400668,14.28748 -0.364448,-0.118 -6.131722,-2.59034 -12.816167,-5.49409 -6.684445,-2.903754 -12.198732,-5.234355 -12.253971,-5.179116 -0.543421,0.543421 -12.790429,28.250706 -12.572824,28.444396 0.160293,0.14268 6.20488,2.77342 13.432415,5.84609 7.227535,3.07266 13.140973,5.68167 13.140973,5.79779 0,0.11612 -4.285812,5.35604 -9.524027,11.64425 -5.238214,6.28822 -9.405402,11.54697 -9.260417,11.68612 0.810051,0.77746 23.871157,18.65394 24.064056,18.65394 0.127293,0 5.043414,-5.95313 10.924713,-13.22917 z m 6.154731,-27.14699 c -0.346509,-0.903 0.217142,-1.25162 2.023604,-1.25162 2.584944,0 4.668786,-0.5882 8.407746,-2.37322 3.62738,-1.73175 7.25559,-4.87103 7.48196,-6.4737 0.078,-0.55246 0.38536,-0.89223 0.86953,-0.96131 2.04911,-0.29237 0.745,2.87883 -2.32716,5.65897 -2.46713,2.23262 -6.77361,4.5163 -10.11426,5.36346 -2.818969,0.71488 -6.074085,0.73408 -6.34142,0.0374 z m -11.677887,-6.23378 c -0.273258,-0.27326 -0.287496,-0.62874 -0.04592,-1.14653 0.374741,-0.80324 15.124667,-10.45186 15.977842,-10.45186 0.854575,0 1.026645,0.74047 0.329032,1.41588 -0.363096,0.35154 -3.262753,2.3199 -6.443687,4.37414 -3.180934,2.05424 -5.708125,3.73498 -5.615979,3.73498 0.09214,0 2.911203,-0.55385 6.264582,-1.23076 3.353379,-0.67692 6.237757,-1.1438 6.409737,-1.03752 0.30369,0.1877 0.45461,1.56272 0.17151,1.56272 -0.0776,0 -3.647991,0.71438 -7.934122,1.5875 -8.636173,1.75927 -8.55569,1.74875 -9.112991,1.19145 z m 0.919406,-7.23818 c -0.636326,-0.76673 -0.903922,-7.83972 -0.336701,-8.89959 0.410714,-0.76742 1.583058,-0.98389 2.427672,-0.44826 1.078861,0.6842 1.361683,8.26218 0.353688,9.47673 -0.523791,0.63114 -1.872929,0.56001 -2.444659,-0.12888 z m 23.324421,0.23402 c -0.4111,-0.25936 -0.55552,-1.28503 -0.64727,-4.59672 -0.12946,-4.67264 0.10362,-5.40222 1.66723,-5.21882 1.39862,0.16405 1.79121,1.39832 1.79706,5.64987 0.005,3.37908 -0.0672,3.81867 -0.67716,4.14514 -0.84046,0.4498 -1.45018,0.45565 -2.13986,0.0205 z"
       id="path228913" />
    <path
       style="fill:#ffaaaa;stroke-width:0.413073"
       d=""
       id="path2" />
    <path
       style="fill:#ffaaaa;stroke-width:0.413073"
       d=""
       id="path3" />
    <path
       style="fill:#ffaaaa;stroke-width:0.413073"
       d=""
       id="path4" />
    <path
       style="fill:#ffaaaa;stroke-width:0.0537535"
       d="m 81.787994,80.13806 c 1.9e-5,-1.005193 0.0073,-1.408813 0.01611,-0.896932 0.0088,0.51188 0.0088,1.334311 -3.7e-5,1.827624 -0.0089,0.493312 -0.01609,0.0745 -0.01609,-0.930692 z"
       id="path5" />
    <path
       style="fill:#ffaaaa;stroke-width:0.0161275"
       d="m 81.87554,80.130478 c 0,-0.989019 0.0019,-1.393618 0.0043,-0.899108 0.0024,0.494509 0.0024,1.303707 0,1.798217 -0.0024,0.49451 -0.0043,0.08991 -0.0043,-0.899109 z"
       id="path6" />
    <path
       style="fill:#ffaaaa;stroke-width:0.0161275"
       d="m 81.873386,79.324103 c 0,-0.0754 0.0028,-0.10624 0.0062,-0.06854 0.0034,0.0377 0.0034,0.09939 0,0.137083 -0.0034,0.0377 -0.0062,0.0069 -0.0062,-0.06854 z"
       id="path7" />
    <path
       style="fill:#ffaaaa;stroke-width:0.0161275"
       d=""
       id="path8" />
    <path
       style="fill:#ffaaaa;stroke-width:0.0161275"
       d=""
       id="path9" />
    <path
       style="fill:#ffaaaa;stroke-width:0.0161275"
       d=""
       id="path10" />
    <path
       style="fill:#ffaaaa;stroke-width:0.0161275"
       d="m 85.888853,78.199209 c 2.180561,-0.0022 5.743935,-0.0022 7.918609,0 2.174674,0.0022 0.390581,0.0041 -3.964654,0.0041 -4.355235,0 -6.134515,-0.0019 -3.953955,-0.0041 z"
       id="path11" />
    <path
       style="fill:#ffaaaa;stroke-width:0.0161275"
       d="m 82.69551,78.199212 c 0.424222,-0.0024 1.113673,-0.0024 1.532115,10e-7 0.418441,0.0024 0.07135,0.0044 -0.771314,0.0044 -0.842661,-10e-7 -1.185023,-0.002 -0.760801,-0.0044 z"
       id="path12" />
    <path
       style="fill:#ffaaaa;stroke-width:0.0161275"
       d="m 82.653968,78.199638 c 0.02883,-0.0036 0.076,-0.0036 0.10483,0 0.02883,0.0036 0.0052,0.0065 -0.05242,0.0065 -0.05766,0 -0.08124,-0.0029 -0.05241,-0.0065 z"
       id="path13" />
    <path
       style="fill:#ffaaaa;stroke-width:0.0161275"
       d=""
       id="path14" />
    <path
       style="fill:#ffffff;fill-opacity:1;stroke-width:0.629388"
       d="m 157.34704,384.12204 c -9.80319,-7.52329 -66.92047,-51.86446 -75.340831,-58.48847 -2.147901,-1.68967 -3.918055,-3.222 -3.933676,-3.40518 -0.05726,-0.67153 15.305603,-20.03387 30.562077,-38.51844 31.65881,-38.35744 39.901,-48.53547 39.901,-49.27252 0,-0.95507 -6.78888,-4.01373 -53.560021,-24.1309 -20.908778,-8.99328 -39.928182,-17.21274 -42.265342,-18.26548 l -4.249383,-1.91409 1.304391,-3.33015 C 55.722647,171.58737 94.087777,85.12047 95.560536,83.583919 c 0.472238,-0.492691 5.195504,1.476016 57.411834,23.929931 20.26764,8.71543 37.32654,15.84623 37.90865,15.84623 0.62586,0 1.2333,-0.69689 1.48639,-1.70529 0.41279,-1.6447 -0.0509,-53.724519 -0.79876,-89.71334 l -0.36294,-17.465522 h 59.32793 59.32793 l -0.41172,19.66838 c -0.83722,39.995466 -1.2286,83.973962 -0.77906,87.540092 0.44095,3.49797 0.53675,3.65564 1.99819,3.28885 1.83697,-0.46106 33.18328,-13.94957 70.28567,-30.244358 14.8081,-6.503487 27.01007,-11.714368 27.11549,-11.579741 0.33325,0.425579 30.9803,72.204009 34.93366,81.818109 4.50831,10.96368 9.52629,23.9587 9.52629,24.67015 0,0.66757 -2.80023,1.92548 -44.37186,19.93261 -34.54313,14.96267 -52.00706,22.63113 -52.47303,23.04105 -0.91085,0.80129 12.88845,18.4295 53.10242,67.83683 8.65408,10.6325 15.8174,19.56856 15.91848,19.8579 0.17305,0.49536 -23.78621,19.44737 -66.98511,52.98587 -10.43232,8.09938 -20.25469,15.65008 -21.8275,16.77934 l -2.85966,2.0532 -6.23159,-7.08831 c -8.28766,-9.42704 -23.4726,-27.78658 -46.72648,-56.49528 -21.06115,-26.00159 -27.44634,-33.82574 -28.76356,-35.24573 -0.7736,-0.83396 -1.00075,-0.78735 -1.94717,0.39951 -5.98887,7.51037 -55.58972,68.33888 -65.55133,80.38953 -7.11415,8.60605 -13.32339,16.18231 -13.79831,16.83613 -0.47493,0.65382 -1.183,1.18492 -1.57347,1.18022 -0.39049,-0.005 -5.38318,-3.59491 -11.09488,-7.97824 z m 94.40823,-142.47487 c 10.26655,-1.65067 26.91603,-8.97783 37.48804,-16.49788 10.21861,-7.26866 18.5275,-17.881 18.5275,-23.66384 0,-2.22156 -0.21587,-2.62899 -1.57347,-2.96973 -2.6424,-0.66319 -4.49531,0.1762 -5.31651,2.40845 -1.66047,4.51365 -2.97018,6.37761 -7.54011,10.73094 -6.20511,5.91102 -12.0309,10.01105 -19.922,14.02056 -12.76247,6.48467 -20.43803,8.79694 -32.08763,9.66641 -3.99978,0.29852 -7.63276,0.88459 -8.15133,1.31497 -1.30155,1.08019 -1.16722,2.90815 0.32325,4.39862 1.09577,1.09577 2.09418,1.25816 7.71001,1.25402 3.54817,-0.003 8.29218,-0.30075 10.54225,-0.66252 z m -26.79776,-29.26415 c 14.91185,-2.96004 27.60809,-5.52738 28.21388,-5.70521 1.36202,-0.39981 1.50262,-3.85496 0.22782,-5.59835 -0.8275,-1.13167 -1.18137,-1.15117 -6.70446,-0.36946 -3.20697,0.45389 -13.48729,2.3482 -22.84516,4.20957 -9.35786,1.86136 -17.08039,3.3182 -17.16118,3.23741 -0.0808,-0.0808 7.97282,-5.44422 17.89692,-11.91875 26.15706,-17.06498 28.44355,-18.87641 27.51598,-21.79894 -0.62331,-1.96386 -2.7537,-2.06341 -6.25838,-0.29245 -4.70212,2.37604 -22.48391,13.529 -35.73373,22.41263 -22.54197,15.11375 -24.67795,17.19425 -21.21157,20.66063 1.84643,1.84643 3.52358,1.62145 36.05988,-4.83708 z m -24.283,-21.42722 c 0.7912,-0.55419 1.72636,-1.75789 2.07814,-2.6749 1.95797,-5.10408 1.7152,-23.72238 -0.40116,-30.7657 -1.1271,-3.751 -2.24032,-4.58229 -6.09835,-4.55386 -4.8577,0.0358 -5.94829,1.77873 -6.51563,10.41295 -0.42177,6.41878 0.49566,20.09519 1.63078,24.31072 1.028,3.81771 6.02031,5.57232 9.30622,3.27079 z m 87.26049,-0.0584 c 3.30758,-1.57728 3.66795,-3.53255 3.3554,-18.20581 -0.23454,-11.01082 -0.42526,-12.86456 -1.58937,-15.44804 -1.51696,-3.36655 -2.89106,-4.30615 -6.27763,-4.29256 -4.36867,0.0175 -5.21348,1.59607 -5.66083,10.5774 -0.39601,7.9508 0.63718,23.95816 1.67106,25.88999 1.37266,2.56483 4.9275,3.18328 8.50137,1.47902 z M 221.07259,19.040428 c -4.93283,-0.10634 -13.00473,-0.10634 -17.93756,0 -4.93283,0.10634 -0.89688,0.193345 8.96878,0.193345 9.86566,0 13.90161,-0.087 8.96878,-0.193345 z"
       id="path1"
       transform="matrix(0.26458333,0,0,0.26458333,33.671093,73.065544)" />
  </g>
</svg>
